<?xml version="1.0" encoding="UTF-8" standalone="no"?>
<svg
   width="6.4692745mm"
   height="7.5309663mm"
   viewBox="0 0 6.4692745 7.5309663"
   version="1.1"
   id="svg5"
   sodipodi:docname="gamemaster_shield_circle.svg"
   inkscape:version="1.1.2 (0a00cf5339, 2022-02-04)"
   xmlns:inkscape="http://www.inkscape.org/namespaces/inkscape"
   xmlns:sodipodi="http://sodipodi.sourceforge.net/DTD/sodipodi-0.dtd"
   xmlns="http://www.w3.org/2000/svg"
   xmlns:svg="http://www.w3.org/2000/svg">
  <sodipodi:namedview
     id="namedview838"
     pagecolor="#ffffff"
     bordercolor="#666666"
     borderopacity="1.0"
     inkscape:pageshadow="2"
     inkscape:pageopacity="0.0"
     inkscape:pagecheckerboard="0"
     inkscape:document-units="mm"
     showgrid="false"
     inkscape:zoom="28.316973"
     inkscape:cx="11.759732"
     inkscape:cy="14.231747"
     inkscape:window-width="1920"
     inkscape:window-height="1014"
     inkscape:window-x="0"
     inkscape:window-y="0"
     inkscape:window-maximized="1"
     inkscape:current-layer="svg5" />

  <path
     style="fill:none;stroke:#000000;stroke-width:0.1;stroke-linecap:butt;stroke-linejoin:miter;stroke-miterlimit:4;stroke-dasharray:none;stroke-opacity:1"
     d="m 3.23464,0.059143 c 0,0 0.35277,0.0042 0.52917,0.0051 0.26458,0.0013 0.53115,-0.03229 0.79375,4.4e-5 0.36091,0.04444 0.7092,0.162898 1.05833,0.264583 0.26778,0.07799 0.79375,0.264669 0.79375,0.264669 0,0 0.006,1.161664 0,1.587458 -0.006,0.425795 0.0241,0.998787 0,1.322873 -0.0483,0.648177 -0.1276,0.923737 -0.26458,1.322957 -0.13698,0.39922 -0.26154,0.73761 -0.52917,1.05829 -0.26763,0.32068 -1.05833,0.79379 -1.05833,0.79379 L 3.23464,7.472657 1.91173,6.678907 c 0,0 -0.79071,-0.4731 -1.05834,-0.79379 -0.26763,-0.32069 -0.52916,-1.05829 -0.52916,-1.05829 0,0 -0.21632,-0.67478 -0.26459,-1.322957 -0.0241,-0.324086 0.006,-0.897122 0,-1.322917 -0.006,-0.425794 3e-5,-1.587414 3e-5,-1.587414 0,0 0.52595,-0.186679 0.79372,-0.264669 0.34913,-0.101687 0.69743,-0.220143 1.05834,-0.264583 0.2626,-0.03234 0.52917,0.0012 0.79375,-4.4e-5 0.17645,-8.55e-4 0.52933,-0.0051 0.52933,-0.0051"
     id="shield-contour" />
  <path
     style="fill:{{u.beta}};fill-opacity:1;stroke:none;stroke-width:0.1;stroke-linecap:butt;stroke-linejoin:miter;stroke-miterlimit:4;stroke-dasharray:none;stroke-opacity:1;"
     d="m 3.23464,3.239286 h 3.175 c 0,0 0.0241,-0.05959 0,0.264498 -0.0483,0.648183 -0.1276,0.923743 -0.26458,1.322963 -0.13698,0.39922 -0.26154,0.73761 -0.52917,1.05829 -0.26763,0.32068 -1.05833,0.79379 -1.05833,0.79379 L 3.23464,7.472577 1.91173,6.678827 c 0,0 -0.79071,-0.4731 -1.05834,-0.79379 -0.26763,-0.32069 -0.52916,-1.05829 -0.52916,-1.05829 0,0 -0.21632,-0.67478 -0.26459,-1.322963 -0.0241,-0.32409 0,-0.264498 0,-0.264498 h 3.175"
     id="shield-sw" />
  <path
     style="fill:{{u.alpha}};fill-opacity:1;stroke:none;stroke-width:0;stroke-linecap:butt;stroke-linejoin:miter;stroke-miterlimit:4;stroke-dasharray:none;stroke-opacity:1"
     d="m 3.23464,3.239286 h 3.175 c 0,0 0.0241,-0.05959 0,0.264498 -0.0483,0.648183 -0.1276,0.923743 -0.26458,1.322963 -0.13698,0.39922 -0.26154,0.73761 -0.52917,1.05829 -0.26763,0.32068 -1.05833,0.79379 -1.05833,0.79379 l -1.32292,0.79375 c 0,-4.233291 0,8e-5 0,-4.233291"
     id="shield-se"
     />
  <path
     style="fill:{{u.alpha}};fill-opacity:1;stroke:none;stroke-width:0;stroke-linecap:butt;stroke-linejoin:miter;stroke-miterlimit:4;stroke-dasharray:none;stroke-opacity:1;"
     d="M 3.23464,0.064286 H 4.02839 4.55756 L 5.61589,0.32887 6.40964,0.593453 v 1.5875 1.058333 l -2.41136,-0.0021 h -1.5875 l -2.35114,0.0021 V 2.180953 0.593453 L 0.85339,0.32887 1.9275,0.078082 2.44089,0.064282 h 0.79375"
     id="shield-nw" />
  <path
     style="fill:{{u.beta}};fill-opacity:1;stroke:none;stroke-width:0;stroke-linecap:butt;stroke-linejoin:miter;stroke-miterlimit:4;stroke-dasharray:none;stroke-opacity:1"
     d="M 3.23464,0.064286 H 4.02839 4.55756 L 5.61589,0.32887 6.40964,0.593453 v 1.5875 1.058333 h -3.175 c -0.020255,-1.9646529 -4.63e-5,-1.9491069 0,-3.175004"
     id="shield-ne"
     />
<!--  <path-->
<!--     style="fill:{{u.alpha}};fill-opacity:1;stroke:none;stroke-width:0.1;stroke-linecap:round;stroke-linejoin:bevel;stroke-miterlimit:4;stroke-dasharray:none;stroke-opacity:1;paint-order:stroke markers fill"-->
<!--     d="M 15.196395,4.6070015 13.864295,3.8928972 12.520846,4.5854121 12.788358,3.0978399 11.714589,2.0341423 13.21202,1.8288766 13.891843,0.47896045 14.549794,1.8396714 16.043718,2.069075 14.952923,3.1153063 Z"-->
<!--     id="shield-se"-->
<!--  />-->
  <circle
     style="fill:{{u.gamma}};fill-opacity:1;stroke-width:0.1;stroke-linecap:round;stroke-linejoin:bevel;paint-order:stroke markers fill"
     id="circle"
     cx="3.2745047"
     cy="3.2344289"
     r="1.3824558" />
</svg>
