<?xml version="1.0" encoding="UTF-8" standalone="no"?>
<svg
   width="6.4692745mm"
   height="7.5309663mm"
   viewBox="0 0 6.4692745 7.5309663"
   version="1.1"
   id="svg5"
   xmlns="http://www.w3.org/2000/svg"
   xmlns:svg="http://www.w3.org/2000/svg">

<path
     style="fill:none;stroke:#000000;stroke-width:0.1;stroke-linecap:butt;stroke-linejoin:miter;stroke-miterlimit:4;stroke-dasharray:none;stroke-opacity:1"
     d="m 3.23464,0.059143 c 0,0 0.35277,0.0042 0.52917,0.0051 0.26458,0.0013 0.53115,-0.03229 0.79375,4.4e-5 0.36091,0.04444 0.7092,0.162898 1.05833,0.264583 0.26778,0.07799 0.79375,0.264669 0.79375,0.264669 0,0 0.006,1.161664 0,1.587458 -0.006,0.425795 0.0241,0.998787 0,1.322873 -0.0483,0.648177 -0.1276,0.923737 -0.26458,1.322957 -0.13698,0.39922 -0.26154,0.73761 -0.52917,1.05829 -0.26763,0.32068 -1.05833,0.79379 -1.05833,0.79379 L 3.23464,7.472657 1.91173,6.678907 c 0,0 -0.79071,-0.4731 -1.05834,-0.79379 -0.26763,-0.32069 -0.52916,-1.05829 -0.52916,-1.05829 0,0 -0.21632,-0.67478 -0.26459,-1.322957 -0.0241,-0.324086 0.006,-0.897122 0,-1.322917 -0.006,-0.425794 3e-5,-1.587414 3e-5,-1.587414 0,0 0.52595,-0.186679 0.79372,-0.264669 0.34913,-0.101687 0.69743,-0.220143 1.05834,-0.264583 0.2626,-0.03234 0.52917,0.0012 0.79375,-4.4e-5 0.17645,-8.55e-4 0.52933,-0.0051 0.52933,-0.0051"
     id="shield" />
  <path
     style="fill-opacity:1;stroke:none;stroke-width:0;stroke-linecap:butt;stroke-linejoin:miter;stroke-miterlimit:4;stroke-dasharray:none;stroke-opacity:1;fill:{{u.beta}}"
     d="m 3.23464,3.239286 h 3.175 c 0,0 0.0241,-0.05959 0,0.264498 -0.0483,0.648183 -0.1276,0.923743 -0.26458,1.322963 -0.13698,0.39922 -0.26154,0.73761 -0.52917,1.05829 -0.26763,0.32068 -1.05833,0.79379 -1.05833,0.79379 L 3.23464,7.472577 1.91173,6.678827 c 0,0 -0.79071,-0.4731 -1.05834,-0.79379 -0.26763,-0.32069 -0.52916,-1.05829 -0.52916,-1.05829 0,0 -0.21632,-0.67478 -0.26459,-1.322963 -0.0241,-0.32409 0,-0.264498 0,-0.264498 h 3.175"
     id="shield-back" />
  <path
     style="fill:{{u.alpha}};fill-opacity:1;stroke:none;stroke-width:0;stroke-linecap:butt;stroke-linejoin:miter;stroke-miterlimit:4;stroke-dasharray:none;stroke-opacity:1"
     d="m 3.23464,3.239286 h 3.175 c 0,0 0.0241,-0.05959 0,0.264498 -0.0483,0.648183 -0.1276,0.923743 -0.26458,1.322963 -0.13698,0.39922 -0.26154,0.73761 -0.52917,1.05829 -0.26763,0.32068 -1.05833,0.79379 -1.05833,0.79379 l -1.32292,0.79375 c 0,-4.233291 0,8e-5 0,-4.233291"
     id="shield-back-3" />
  <path
     style="fill-opacity:1;stroke:none;stroke-width:0;stroke-linecap:butt;stroke-linejoin:miter;stroke-miterlimit:4;stroke-dasharray:none;stroke-opacity:1;fill:{{u.alpha}}"
     d="M 3.23464,0.064286 H 4.02839 4.55756 L 5.61589,0.32887 6.40964,0.593453 v 1.5875 1.058333 l -2.41136,-0.0021 h -1.5875 l -2.35114,0.0021 V 2.180953 0.593453 L 0.85339,0.32887 1.9275,0.078082 2.44089,0.064282 h 0.79375"
     id="shield-1-7" />
  <path
     style="fill:{{u.beta}};fill-opacity:1;stroke:none;stroke-width:0;stroke-linecap:butt;stroke-linejoin:miter;stroke-miterlimit:4;stroke-dasharray:none;stroke-opacity:1"
     d="M 3.23464,0.064286 H 4.02839 4.55756 L 5.61589,0.32887 6.40964,0.593453 v 1.5875 1.058333 h -3.175 c -0.020255,-1.9646529 -4.63e-5,-1.9491069 0,-3.175004"
     id="shield-1-7-3" />

  <path
     style="fill-opacity:1;stroke:none;stroke-width:0.0264583;stroke-linecap:round;stroke-linejoin:bevel;stroke-miterlimit:4;stroke-dasharray:none;stroke-opacity:1;paint-order:stroke markers fill"
     id="path25655"
     d="M 15.196395,4.6070015 13.864295,3.8928972 12.520846,4.5854121 12.788358,3.0978399 11.714589,2.0341423 13.21202,1.8288766 13.891843,0.47896045 14.549794,1.8396714 16.043718,2.069075 14.952923,3.1153063 Z" />
  <path
     style="fill:{{u.gamma}};fill-opacity:1;stroke:none;stroke-width:0.1px;stroke-linecap:butt;stroke-linejoin:miter;stroke-opacity:1"
     d="m 0.70726902,3.272881 c 0.0940846,-0.1087752 0.16999965,-0.2298964 0.25862875,-0.3429769 0.030335,-0.038704 0.068676,-0.070669 0.098948,-0.1094227 0.016516,-0.021143 0.026955,-0.046597 0.04347,-0.067741 0.024045,-0.030787 0.053848,-0.056777 0.077851,-0.087597 0.013161,-0.016896 0.019683,-0.038401 0.033214,-0.055003 0.015975,-0.019603 0.037336,-0.034194 0.054565,-0.052704 0.085843,-0.1111615 0.1406107,-0.1593659 0.296259,-0.3280131 0.063093,-0.057526 0.1309764,-0.106611 0.1939899,-0.1642798 0.1232595,-0.1128054 0.2492317,-0.2287159 0.3865927,-0.3248737 0.032222,-0.022556 0.069772,-0.037101 0.1009915,-0.061026 0.014764,-0.011314 0.025082,-0.027754 0.039856,-0.039054 0.095753,-0.073234 0.2144945,-0.1092213 0.3157854,-0.1717987 0.065358,-0.040377 0.1336567,-0.07742 0.1982603,-0.1188392 0.033445,-0.021442 0.060763,-0.051346 0.093181,-0.074311 0.040653,-0.0288 0.1659324,-0.099138 0.216035,-0.1173065 0.03848,-0.013954 0.10287,-0.032769 0.1440963,-0.037922 0.018542,-0.00233 0.038346,0.00595 0.056062,0 0.093315,-0.031327 0.1549448,-0.028666 0.250453,-0.04858 0.182938,-0.038143 0.3610721,-0.064826 0.5468213,-0.042156 0.085161,0.010393 -0.00335,0.0082 0.065734,0.019709 0.025384,0.00423 0.060276,0.00511 0.073764,0.018177 0.0042,0.00407 0.00542,0.013184 0.00146,0.017484 -0.010538,0.01143 -0.031776,0.00241 -0.045696,0.00935 -0.1369041,0.068097 -0.2752518,0.1204046 -0.4187536,0.1757002 -0.030694,0.011827 -0.063457,0.01891 -0.092524,0.034308 -0.034554,0.018306 -0.06378,0.045338 -0.09694,0.066063 -0.046678,0.029172 -0.097256,0.055495 -0.1451546,0.082888 -0.096347,0.055101 -0.1975028,0.1018826 -0.2947625,0.1557396 -0.088567,0.049043 -0.1828919,0.1065458 -0.2641399,0.1657032 -0.025871,0.018836 -0.046641,0.044013 -0.072158,0.063325 -0.016433,0.012438 -0.036859,0.018949 -0.053178,0.031535 -0.066973,0.051651 -0.1162809,0.125576 -0.1755947,0.1844638 -0.011242,0.01116 -0.025403,0.018931 -0.038104,0.028396 -0.015634,0.01252 -0.032766,0.023368 -0.046901,0.037557 -0.014364,0.01442 -0.023638,0.033388 -0.038068,0.04774 -0.029388,0.029229 -0.066644,0.049498 -0.097556,0.077119 -0.2561863,0.2035773 -0.5106075,0.3616156 -0.7494946,0.5129099 -0.032849,0.01957 -0.06446,0.051498 -0.094535,0.075483 -0.029554,0.023571 -0.063614,0.041372 -0.093436,0.056135 -0.057647,0.028538 -0.1031117,0.084021 -0.1605936,0.112817 -0.051809,0.025955 -0.106654,0.053663 -0.1600462,0.075078 -0.044581,0.017881 -0.083455,0.051392 -0.12314613,0.074931 -0.04099,0.024309 -0.089706,0.035008 -0.1324533,0.056244 -0.021541,0.010702 -0.05368,0.024276 -0.073764,0.037594 -0.0057,0.00378 -0.00324,0.015169 -0.00934,0.018248 -0.014431,0.00729 -0.050694,0.00667 -0.069676,0.00891 z"
     id="path4949" />
  <path
     style="fill:{{u.gamma}};fill-opacity:1;stroke:none;stroke-width:0.1px;stroke-linecap:butt;stroke-linejoin:miter;stroke-opacity:1"
     d="M 0.77714382,4.4032684 C 0.90039327,4.2597255 0.99984077,4.0998905 1.1159435,3.9506663 c 0.039738,-0.051075 0.089964,-0.093257 0.1296203,-0.1443974 0.021636,-0.027901 0.035311,-0.061491 0.056945,-0.089393 0.031499,-0.040627 0.07054,-0.074925 0.1019835,-0.1155955 0.017241,-0.022296 0.025785,-0.050675 0.04351,-0.072584 0.020927,-0.025869 0.04891,-0.045123 0.071479,-0.06955 C 1.6581061,3.3091181 1.5242013,3.4427544 1.642312,3.3064649 1.678665,3.2645169 1.721996,3.2291759 1.7595006,3.1882684 1.8230916,3.1189084 1.8451906,3.0835915 1.9075759,3.026291 1.9902269,2.950378 2.079153,2.8856041 2.1616996,2.8095027 2.3231676,2.6606414 2.4881892,2.5076826 2.66813,2.38079 2.7466044,2.3499262 2.7932768,2.2918488 2.8526382,2.248721 2.9780731,2.152079 3.1336226,2.1045895 3.266312,2.0220105 3.5025852,1.8741697 3.6851002,1.7416767 3.931098,1.6123229 c 0.050408,-0.018414 0.134758,-0.043243 0.1887638,-0.050043 0.367852,-0.041079 0.7692555,-0.1591841 1.1178567,-0.119737 0.1115595,0.013715 -0.00439,0.010821 0.08611,0.026009 0.033253,0.00558 0.078961,0.00674 0.09663,0.023987 0.0055,0.00537 0.0071,0.017398 0.00191,0.023072 -0.013801,0.015084 -0.041623,0.00318 -0.059858,0.012339 C 5.1831683,1.6178129 5.001935,1.6868393 4.8139499,1.759809 4.7737419,1.775416 4.7308219,1.784763 4.6927449,1.805084 4.6474799,1.829242 4.6091939,1.864914 4.5657548,1.892262 4.37669,2.0059111 4.1681879,2.1139544 3.9894705,2.207162 3.8734488,2.271881 3.749885,2.3477629 3.6434514,2.4258286 c -0.033891,0.024856 -0.061099,0.05808 -0.094526,0.083566 -0.021527,0.016414 -0.048285,0.025006 -0.069663,0.041614 -0.087733,0.06816 -0.1523262,0.1657136 -0.2300263,0.2434237 -0.014727,0.014727 -0.033277,0.024982 -0.049916,0.037472 -0.020481,0.016522 -0.042923,0.030837 -0.061439,0.049561 -0.018817,0.019029 -0.030965,0.044059 -0.049869,0.062999 -0.038498,0.038571 -0.087303,0.06532 -0.1277967,0.1017687 -0.2445219,0.2200958 -0.5261972,0.3902775 -0.8104225,0.553844 -0.030115,0.017331 -0.046169,0.043337 -0.07344,0.06165 -0.00757,0.00508 -0.043546,0.019207 -0.048674,0.024371 -0.00645,0.00649 -0.00493,0.01917 -0.012235,0.02466 -0.010428,0.00783 -0.025879,0.00562 -0.037054,0.012325 C 1.9353579,3.748909 1.8939479,3.791042 1.85455,3.822693 1.815834,3.853797 1.771216,3.877288 1.7321504,3.89677 1.6566344,3.934429 1.5970757,4.0076459 1.5217754,4.0456466 c -0.067869,0.03425 -0.1397151,0.070815 -0.209658,0.099074 -0.0584,0.023596 -0.1093246,0.067819 -0.1613195,0.098882 -0.053696,0.032079 -0.1175129,0.046197 -0.17351173,0.074222 -0.028218,0.014123 -0.07032,0.032035 -0.096629,0.04961 -0.00746,0.00499 -0.00425,0.020017 -0.012239,0.024081 -0.018905,0.00962 -0.066409,0.0088 -0.091274,0.011758 z"
     id="path4949-4" />
  <path
     style="fill:{{u.gamma}};fill-opacity:1;stroke:none;stroke-width:0.1px;stroke-linecap:butt;stroke-linejoin:miter;stroke-opacity:1"
     d="m 1.4958927,4.9021127 c 0.1087006,-0.1345119 0.1964084,-0.284291 0.2988059,-0.4241268 0.035047,-0.047861 0.079345,-0.087389 0.1143191,-0.1353128 0.019082,-0.026146 0.031143,-0.057622 0.050223,-0.08377 0.027781,-0.038071 0.062213,-0.070211 0.089945,-0.1083228 0.015205,-0.020894 0.022741,-0.047486 0.038373,-0.068017 0.018456,-0.024241 0.043135,-0.042284 0.06304,-0.065174 C 2.2728604,3.8768005 2.154763,4.0020291 2.2589311,3.8743142 2.290993,3.8350059 2.3292089,3.8018881 2.3622857,3.763554 2.4183695,3.698558 2.43786,3.6654623 2.4928813,3.6117674 2.5657753,3.5406301 2.6442046,3.4799317 2.7170069,3.408618 2.8594143,3.2691223 3.0049559,3.1257868 3.1636556,3.0068776 c 0.037227,-0.027894 0.080611,-0.04588 0.11668,-0.075465 0.017059,-0.013991 0.028979,-0.03432 0.046048,-0.048294 0.1106282,-0.090561 0.2478154,-0.1350636 0.3648415,-0.2124472 0.07551,-0.049931 0.1544198,-0.095738 0.2290593,-0.1469572 0.038641,-0.026515 0.070202,-0.063496 0.1076564,-0.091894 0.046968,-0.035615 0.1917095,-0.1225944 0.2495955,-0.1450619 0.044458,-0.017257 0.1188503,-0.040522 0.166481,-0.046895 0.021423,-0.00288 0.044303,0.00736 0.064771,0 C 4.6165994,2.2011248 4.6878026,2.2044148 4.7981476,2.1797889 5.874836,1.726499 5.8134458,1.7307478 5.0561725,2.424965 5.0207113,2.4395901 4.9828566,2.4483488 4.9492757,2.4673913 4.9093539,2.4900289 4.8755873,2.5234567 4.8372758,2.5490849 4.7833468,2.5851593 4.7249124,2.61771 4.669572,2.6515846 4.5582574,2.719722 4.4413877,2.7775731 4.3290191,2.844173 4.226693,2.9048207 4.1177156,2.9759279 4.023846,3.0490824 3.993956,3.0723754 3.96996,3.1035094 3.940479,3.1273904 3.921493,3.1427714 3.897894,3.1508234 3.879039,3.1663864 3.801662,3.2302584 3.7446943,3.3216743 3.6761662,3.3944952 c -0.012989,0.013801 -0.029349,0.023411 -0.044024,0.035114 -0.018063,0.015482 -0.037856,0.028897 -0.054187,0.046444 -0.016595,0.017832 -0.02731,0.041287 -0.043982,0.059036 -0.033953,0.036145 -0.076998,0.06121 -0.1127108,0.095365 -0.2156573,0.2062487 -0.4640821,0.3657235 -0.714756,0.5189992 -0.02656,0.01624 -0.040718,0.04061 -0.064771,0.057772 -0.00667,0.00476 -0.038406,0.017998 -0.042928,0.022838 -0.00569,0.00608 -0.00434,0.017964 -0.010791,0.023109 -0.00919,0.00733 -0.022824,0.00526 -0.03268,0.011555 -0.037953,0.024196 -0.074474,0.063677 -0.1092205,0.093338 -0.034146,0.029147 -0.073497,0.05116 -0.1079513,0.069417 -0.066603,0.03529 -0.1191298,0.1039008 -0.1855413,0.1395101 -0.059858,0.032096 -0.1232224,0.06636 -0.1849088,0.092842 -0.051506,0.022111 -0.09642,0.063552 -0.1422765,0.09266 -0.047357,0.030061 -0.1036415,0.043291 -0.1530295,0.069553 -0.024886,0.013234 -0.062018,0.03002 -0.085222,0.046489 -0.00658,0.00467 -0.00375,0.018757 -0.010791,0.022566 -0.016673,0.00902 -0.058571,0.00825 -0.080499,0.011017 z"
     id="path4949-4-4" />
  <path
     style="fill:{{u.gamma}};fill-opacity:1;stroke:none;stroke-width:0.1px;stroke-linecap:butt;stroke-linejoin:miter;stroke-opacity:1"
     d="m 2.5685353,5.4543626 c 0.075047,-0.1238166 0.1325908,-0.2588215 0.2023285,-0.386627 0.023869,-0.043743 0.055568,-0.081191 0.079376,-0.124981 0.012989,-0.023891 0.020108,-0.051715 0.033096,-0.075607 0.018911,-0.034787 0.043446,-0.065099 0.062316,-0.099917 0.010346,-0.019088 0.014289,-0.042366 0.024994,-0.061183 0.01264,-0.022216 0.03059,-0.039692 0.04446,-0.060883 0.085191,-0.1301541 0.00213,-0.01343 0.074134,-0.1310727 0.022163,-0.036208 0.049582,-0.067677 0.072608,-0.1031437 0.039042,-0.060134 0.051843,-0.089974 0.090881,-0.1403995 0.051718,-0.066805 0.1085195,-0.1252024 0.1601531,-0.1921499 0.1009996,-0.1309551 0.2041659,-0.2654473 0.3193882,-0.3802831 0.027028,-0.026938 0.059587,-0.045974 0.085587,-0.074251 0.012297,-0.013373 0.020119,-0.031698 0.032425,-0.045057 0.079761,-0.086579 0.1836186,-0.1362433 0.269336,-0.2121576 0.055308,-0.048983 0.1135722,-0.094748 0.168107,-0.1447529 0.028233,-0.025886 0.050175,-0.060071 0.077343,-0.087458 0.03407,-0.034346 0.1407251,-0.1208093 0.1842785,-0.1449052 0.03345,-0.018507 0.089832,-0.044701 0.1265539,-0.054219 0.016515,-0.00429 0.035126,0.00245 0.050568,-0.00557 C 4.8078125,2.887511 4.8636436,2.88419 4.947996,2.853748 5.7555144,2.3754442 5.7078953,2.3843367 5.1673416,3.0402246 c -0.026618,0.015494 -0.055534,0.026202 -0.080361,0.045294 -0.029516,0.022697 -0.053438,0.054047 -0.081478,0.07915 -0.039471,0.035336 -0.082717,0.06806 -0.1234499,0.1016447 C 4.8001197,3.3338683 4.7130985,3.3931462 4.63023,3.4594829 4.554768,3.5198909 4.4748759,3.5897722 4.4069288,3.660097 c -0.021636,0.022392 -0.038098,0.05095 -0.059371,0.073808 -0.013701,0.014721 -0.031537,0.023602 -0.045122,0.038468 -0.055748,0.061008 -0.093552,0.1437017 -0.1417387,0.2115644 -0.00913,0.012861 -0.021205,0.022446 -0.031809,0.033667 -0.012971,0.014728 -0.027446,0.027846 -0.038915,0.044182 -0.011655,0.016602 -0.018308,0.037484 -0.030029,0.054022 -0.02387,0.033678 -0.055646,0.05871 -0.081036,0.090847 -0.1533156,0.1940596 -0.3356282,0.35113 -0.520149,0.503118 -0.019551,0.016104 -0.028826,0.03806 -0.046352,0.054733 -0.00486,0.00462 -0.028671,0.018618 -0.031849,0.023125 -0.004,0.00567 -0.00208,0.015661 -0.00673,0.020594 -0.00665,0.00703 -0.017435,0.00644 -0.02467,0.012643 -0.027865,0.023853 -0.053496,0.060592 -0.078459,0.088821 -0.024531,0.02774 -0.053647,0.049856 -0.079214,0.068354 -0.049423,0.035757 -0.085425,0.098662 -0.1346746,0.1346748 -0.04439,0.032459 -0.09136,0.067065 -0.1375874,0.094904 -0.038599,0.023244 -0.070639,0.062372 -0.1043162,0.091086 -0.034779,0.029653 -0.077756,0.04575 -0.114398,0.072345 -0.018463,0.013402 -0.046228,0.030878 -0.063142,0.046889 -0.0048,0.00454 -0.00155,0.016285 -0.00678,0.020132 -0.012359,0.00911 -0.045126,0.012051 -0.062044,0.016295 z"
     id="path4949-4-4-9" />
</svg>
