<?xml version="1.0" encoding="UTF-8" standalone="yes"?>
<svg
        xmlns="http://www.w3.org/2000/svg"
        version="1.2"
        baseProfile="tiny"
        width="6cm"
        height="6cm"
        viewBox="-12 -22 24 24"
>


    <g transform="translate(0,-1)" opacity="1">

        <g id="girl_ears">
            <ellipse cx="5.25" cy="-11.25" rx="0.80" ry="1.5"
                     style="fill:#CEB090;stroke:#000000;stroke-width:0.1mm; stroke-cap:round;"/>
            <ellipse cx="-5.25" cy="-11.25" rx="0.80" ry="1.5"
                     style="fill:#CEB090;stroke:#000000;stroke-width:0.1mm; stroke-cap:round;"/>
        </g>
        <path id="girl_body" d="M 0 2 l -10 0 q 0 -4 4 -4 q 4 0 4 -2 l 0 -2 l 4 0 l 0 2 q 0 2 4 2 q 4 0 4 4 l -10 0"
              style="fill:#CEB090;stroke:#000000;stroke-width:0.1mm; stroke-cap:round;"/>

        <path id="girl_shirt" d="M 0 2 l -10 0 q 0 -4 4 -4 q 6 4 12 0 q 4 0 4 4 l -10 0"
              style="fill:{{u.alpha}};stroke:#000000;stroke-width:0.1mm; stroke-cap:round;"/>


        <g transform="translate(0,3)">

            <path id="head_girl_standard" opacity="{{u.face_artefact.face_style.standard}}"
                  d="M 0  -7 l 0  0  q -3 0 -5 -6 l  0 -2 q 1 -6   4 -6 l  2  0 q 3 0   4  6 l  0  2 q -2 6  -5  6"
                  style="fill:#CEB090;stroke:#000000;stroke-width:0.1mm; stroke-cap:round;"/>

            <path id="girl_hair1" opacity="{{u.face_artefact.hair_style.type1}}"
                  d="M 0 -20
                    l -1 -1
                    l -3 4
                    l -4 2

                    l 1 -1
                    l 2 -2

                    l 1 -3
                    l 2 -2
                    l 2 3

                    l -1 -1
                    l 2 -2
                    l 4 2
                    l 2 3
                    l 1 3
                    l -2 2
                    l -1 -3
                    l -2 -4
                    l -3 0

              "
                  style="fill:#201010;stroke:#000000;stroke-width:0.1mm; stroke-cap:round;"/>


            <ellipse cx="-2.75" cy="-14.05" rx="1.80" ry="1.5" style="fill:#9C8267;stroke:#none;"/>
            <ellipse cx="2.75" cy="-14.05" rx="1.80" ry="1.5" style="fill:#9C8267;stroke:#none;"/>

            <g id="eyes" opacity="1">
                <!--                <animate attributeName="opacity" values="1" begin="5s" dur="0.5s" eventValue="onmouseover" repeatCount="indefinite"/>-->
                <ellipse cx="-2.5" cy="-14" rx="1" ry="0.5" style="fill:#F0F0F0;stroke:#none;"/>
                <ellipse cx="2.5" cy="-14" rx="1" ry="0.5" style="fill:#F0F0F0;stroke:#none;"/>

                <ellipse cx="-2.5" cy="-14" rx="0.5" ry="0.5" style="fill:#502010;stroke:#none;"/>
                <ellipse cx="2.5" cy="-14" rx="0.5" ry="0.5" style="fill:#502010;stroke:#none;"/>
                <ellipse cx="-2.5" cy="-14" rx="0.25" ry="0.35" style="fill:#202020;stroke:#none;"/>
                <ellipse cx="2.5" cy="-14" rx="0.25" ry="0.35" style="fill:#202020;stroke:#none;"/>

            </g>


            <ellipse cx="0" cy="-11" rx="1.1" ry="0.35" style="fill:#917D67;stroke:#none;"/>
            <path id="girl_mouth4" opacity="1"
                  style="fill:#ffffff;stroke:#917D67;stroke-width:0.1mm; stroke-cap:round;"
                  d="M 0 -9.5
                    l -0.35 -0.25
                    l -1.35 0.5
                    l 1.7 0.25
                    l 1.7 -0.25
                    l -1.35 -0.5
                    l -0.35 0.25
              "/>
        </g>
    </g>
</svg>