<?xml version="1.0" encoding="UTF-8" standalone="yes"?>
<svg
        xmlns="http://www.w3.org/2000/svg"
        version="1.2"
        baseProfile="tiny"

        width="6cm"
        height="6cm"
        viewBox="-12 -22 24 24"
        >






<g transform="translate(0,-1)" opacity="1">
<ellipse cx="5.25" cy="-12.25" rx="0.80" ry="1.5"
         style="fill:#CEB090;stroke:#000000;stroke-width:0.1mm; stroke-cap:round;"/>
<ellipse cx="-5.25" cy="-12.25" rx="0.80" ry="1.5"
         style="fill:#CEB090;stroke:#000000;stroke-width:0.1mm; stroke-cap:round;"/>
<path id="body"
      d="M 0 2 l -10 0 l 0 -3 q 0 -2 3 -3 l 4 0 l 0 -4 l 6 0 l 0 4 l 4 0 q 3 1 3 3 l 0 3 l -10 0"
      style="fill:{{u.alpha}};stroke:#000000;stroke-width:0.1mm; stroke-cap:round;"/>
<path id="neck"
      d="M 0 -3 q -2 0 -3 -1 l 0 -4 l 6 0 l 0 4 q -1 1 -3 1"
      style="fill:#CEB090;stroke:#000000;stroke-width:0.1mm; stroke-cap:round;"/>

<g transform="translate(0,3)">
    <path id="head" opacity="{{u.face_artefact.face_style.standard}}"
          d="M 1 -8 l -2  0  q -2  0 -4 -6 l  0 -2  q  0 -4  4 -6 l  2  0  q  4  2  4  6 l  0  2  q  -2 6 -4 6"
          style="fill:#CEB090;stroke:#000000;stroke-width:0.1mm; stroke-cap:round;"/>



    <path id="hair3" opacity="{{u.face_artefact.hair_style.type3}}"
          d="M 0 -20 l -1 0 -1 -1 -1 1 -1 2 -1 3 -1 -5 0 -1 5 -1 1 0
          1 0 5 1 0 1 -1 5 -1 -3 -1 -2 -1 -1 -1 1 -1 0"
          style="fill:#808080;stroke:#000000;stroke-width:0.1mm; stroke-cap:round;"/>






    <path id="vandike" opacity="{{u.face_artefact.mouth_style.type3}}"
          d="M 0 -9.35
                     l 1 0
                     l 0 0.5
                     l 1 0
                     l 0 1
                     l -1 1
                     l -2 0
                     l -1 -1
                     l 0 -1
                     l 1 0
                     l 0 -0.5
                     l 1 0
              "
          style="fill:#808080;stroke:#000000;stroke-width:0.1mm; stroke-cap:round;"/>



    <path id="fav_lips" opacity="{{u.face_artefact.mouth_style.type4}}" d="M 0 -10.35 l -1.5 0 3 0"
          style="fill:#000000;stroke:#000000;stroke-width:0.1mm; stroke-cap:round;"/>




    <g id="facial_features">
        <ellipse cx="-2.75" cy="-15.05" rx="1.80" ry="1.5" style="fill:#9C8267;stroke:#none;"/>
        <ellipse cx="2.75" cy="-15.05" rx="1.80" ry="1.5" style="fill:#9C8267;stroke:#none;"/>
        <g id="eyes" opacity="1">
            <ellipse cx="-2.5" cy="-15" rx="1" ry="0.5" style="fill:#F0F0F0;stroke:#none;"/>
            <ellipse cx="2.5" cy="-15" rx="1" ry="0.5" style="fill:#F0F0F0;stroke:#none;"/>

            <ellipse cx="-2.5" cy="-15" rx="0.5" ry="0.5" style="fill:{{u.eyes}};stroke:#none;"/>
            <ellipse cx="2.5" cy="-15" rx="0.5" ry="0.5" style="fill:{{u.eyes}};stroke:#none;"/>
            <ellipse cx="-2.5" cy="-15" rx="0.25" ry="0.25" style="fill:#000000;stroke:#none;"/>
            <ellipse cx="2.5" cy="-15" rx="0.25" ry="0.25" style="fill:#000000;stroke:#none;"/>
        </g>
        <ellipse cx="0" cy="-12" rx="1.1" ry="0.35" style="fill:#917D67;stroke:#none;"/>
    </g>

</g>
</g>
<rect x="-8" y="-1.75" width="16" height="2.5" style="fill:{{u.beta}};stroke:#none;"/>
<rect x="5" y="-1.75" width="2.5" height="2.5" style="fill:{{u.gamma}};stroke:#none;"/>




        </svg>