<?xml version="1.0" encoding="UTF-8"?>
<!-- Created with Inkscape (http://www.inkscape.org/) -->
<svg width="165.05mm" height="128.87mm" version="1.1" viewBox="0 0 165.05 128.87" xmlns="http://www.w3.org/2000/svg">
 <g transform="translate(-11.155 -9.4959)" >
  <path d="m11.697 52.322 1.0731 1.0099h29.731l0.67712-1.1728-14.627-25.906h-1.1993z" stroke="#000000" stroke-width=".85318" fill="#00ff00"/>
  <g transform="matrix(.051782 0 0 .051782 181.01 94.76)" stroke="#000000">
   <path d="m-2354.9-392.57-296.96 338.75-1.0158-1.2344c100.54 117.51 199.33 237.47 298.62 356.38l3.2576-0.0829c98.3-117.58 189.88-243.49 288.16-360.29l-288.62-333.37z" stroke-width="16" fill="#0000ff"/>
   <path d="m-2650.5-53.343 587.74-4.7351" stroke-width="6"/>
  </g>
  <rect x="61.526" y="9.9094" width="24.184" height="25.163" rx="1.6837" ry="2.5127" stroke="#000000" stroke-width=".82701" fill="#00ffff"/>
  <g transform="matrix(.049863 0 0 .049863 53.385 42.748)" stroke="#000000" fill="#ffff00">
   <path d="m531.52 523.73 19.011-70.352 277.45-258.73h9.4784l282.8 263.72 23.945 90.327-310.5 292.66-8.8497-0.47531-301.66-290.1z" stroke-width="16"/>
   <path d="m519.04 547.65 111.3-61.37 199.64-291.63 198.72 300.99-200.72 95.89-199.72-107.33" stroke-width="6"/>
   <path d="m1028.7 493.56 114.42 54.092" stroke-width="6"/>
   <path d="m828.72 591.66-0.73554 250.68" stroke-width="5.6871"/>
  </g>
  <g transform="translate(275.42 -8.5997)" stroke="#000000" fill="#ff00ff">
   <path d="m-115.2 66.707 8.9879-2.2081 6.319-9.5877-0.72734-8.2825-5.8862-7.107-8.5479-1.7994-9.1122 1.9872-5.6708 7.3189-0.82399 7.9489 5.8163 9.403z" stroke-width="1.3102"/>
   <path d="m-123.89 50.76 2.7062 9.674 11.614 0.04362 2.7117-9.6835-8.1806-6.2812z" stroke-width=".46601"/>
   <g stroke-width=".49133">
    <path d="m-115.05 37.819-0.0485 6.8342"/>
    <path d="m-123.75 51.16-6.4497-4.1592"/>
    <path d="m-121.12 60.365-3.8232 4.4027"/>
    <path d="m-109.62 60.51 3.5102 4.0383"/>
    <path d="m-106.83 50.916 6.0693-4.2148"/>
   </g>
  </g>
  <g transform="matrix(.068747 0 0 .068747 207.61 108.49)" fill="#ff0000">
   <path d="m-1160.8 71.357 208.07-122.82 208.03 122.23-11.16 232.13-197.46 122.23-196.88-119.29z" stroke="#000000" stroke-width="16"/>
   <g transform="matrix(.39948 0 0 .39948 -1174.3 -120.6)">
    <path d="m560.49 177.48-4.4133 214.78m-314.82 594.33 639.93 7.35m-817.93 70.66 179.47-76.54 310.4 373.64 325.11-370.7 142.56 48.4m-960.32-541.11 497.07-104.55 491.15 106.02-177.81 489.77-317.76-597.27-314.81 592.86z" fill="none" stroke="#000000" stroke-width="8"/>
   </g>
  </g>
 </g>
</svg>
