<?xml version="1.0" encoding="UTF-8" standalone="no"?>
<!-- Created with Inkscape (http://www.inkscape.org/) -->

<svg
   width="12.295277mm"
   height="9.1373472mm"
   viewBox="0 0 12.295277 9.1373476"
   version="1.1"
   id="svg5"
   xmlns="http://www.w3.org/2000/svg"
   xmlns:svg="http://www.w3.org/2000/svg">
  <defs
     id="defs2">
    <rect
       x="-60.001423"
       y="-25.091503"
       width="215.9279"
       height="164.81828"
       id="rect27552" />
  </defs>
  <g
     id="layer1"
     transform="translate(-124.53545,-94.929482)">
    <g
       id="g61072"
       transform="matrix(0.86067607,-0.38451996,0.47566299,1.1501338,-30.025619,35.309087)">
      <rect
         style="fill:{{g.alpha}};fill-opacity:1;stroke:none;stroke-width:0.1;stroke-linecap:round;stroke-linejoin:bevel;stroke-miterlimit:4;stroke-dasharray:none;stroke-opacity:1;paint-order:stroke markers fill"
         id="rect60483"
         width="2.3812499"
         height="5.5562501"
         x="127.77264"
         y="96.943886"
         ry="0" />
      <rect
         style="fill:{{g.beta}};fill-opacity:1;stroke:none;stroke-width:0.1;stroke-linecap:round;stroke-linejoin:bevel;stroke-miterlimit:4;stroke-dasharray:none;stroke-opacity:1;paint-order:stroke markers fill"
         id="rect60483-5"
         width="2.3812499"
         height="5.5562501"
         x="130.15388"
         y="96.943886"
         ry="0" />
      <rect
         style="fill:{{g.gamma}};fill-opacity:1;stroke:none;stroke-width:0.1;stroke-linecap:round;stroke-linejoin:bevel;stroke-miterlimit:4;stroke-dasharray:none;stroke-opacity:1;paint-order:stroke markers fill"
         id="rect60483-5-6"
         width="2.3812499"
         height="5.5562501"
         x="132.53514"
         y="96.943886"
         ry="0" />
    </g>
    <text
       xml:space="preserve"
       transform="matrix(0.70126003,0,0,0.70126003,8.9564721,70.176774)"
       id="text27550"
       style="font-style:normal;font-weight:normal;font-size:40px;line-height:1.25;font-family:sans-serif;white-space:pre;shape-inside:url(#rect27552);fill:#000000;fill-opacity:1;stroke:none" />
    <path
       style="fill:#c4b092;fill-opacity:1;stroke:#000000;stroke-width:0.124497;stroke-linecap:butt;stroke-linejoin:miter;stroke-miterlimit:4;stroke-dasharray:none;stroke-opacity:1"
       d="m 130.68344,98.002219 c 0.65197,0 1.14095,0 1.562,0.007 0.42106,0.007 0.7742,0.0207 1.15453,0.0483 0.38031,0.0276 0.78778,0.069 1.3175,0.13102 0.52975,0.0621 1.18171,0.1448 2.05101,0.25513 0,0.55164 0,1.03432 -0.0124,1.460117 -0.0124,0.425794 -8.7e-4,0.006 -0.083,1.118794 -0.7783,-0.10476 -0.7783,-0.10476 -4.42656,-0.10476 h -3.12705 c -3.64825,0 -3.64825,0 -4.42627,0.10476 -0.0475,-0.32409 -0.0712,-0.693 -0.0831,-1.118794 -0.0124,-0.425797 -0.0124,-0.908477 -0.0124,-1.460117 0.8693,-0.11033 1.52127,-0.19307 2.05098,-0.25513 0.52972,-0.0621 0.9372,-0.10344 1.31754,-0.13102 0.38029,-0.0276 0.73344,-0.0414 1.1545,-0.0483 0.42107,-0.007 0.91003,-0.007 1.56201,-0.007"
       id="shield-1" />
    <text
       xml:space="preserve"
       style="font-size:3px;line-height:1.25;font-family:roboto;fill:#000000;fill-opacity:1;stroke:none;stroke-width:0.264583; text-anchor:middle;"
       x="130.43703"
       y="100.5"
       id="text44643">{{g.acronym}}</text>
  </g>
  <g
     id="layer2"
     transform="translate(-6.5499449,1.6613688)" />
</svg>
