<?xml version="1.0" encoding="UTF-8" standalone="no"?>
<svg
   width="6.4692745mm"
   height="7.5309663mm"
   viewBox="0 0 6.4692745 7.5309663"
   version="1.1"
   id="svg5"
   xmlns="http://www.w3.org/2000/svg"
   xmlns:svg="http://www.w3.org/2000/svg">
  <defs
     id="defs61527" />
  <g
     id="layer1"
     transform="translate(-117.92342,-96.350433)">
    <path
       style="fill:{{u.beta}};fill-opacity:1;stroke:none;stroke-width:0;stroke-linecap:butt;stroke-linejoin:miter;stroke-miterlimit:4;stroke-dasharray:none;stroke-opacity:1"
       d="m 121.15806,99.589719 h 3.175 c 0,0 0.0241,-0.05959 0,0.264498 -0.0483,0.648183 -0.1276,0.923743 -0.26458,1.322963 -0.13698,0.39922 -0.26154,0.73761 -0.52917,1.05829 -0.26763,0.32068 -1.05833,0.79379 -1.05833,0.79379 l -1.32292,0.79375 -1.32291,-0.79375 c 0,0 -0.79071,-0.4731 -1.05834,-0.79379 -0.26763,-0.32069 -0.52916,-1.05829 -0.52916,-1.05829 0,0 -0.21632,-0.67478 -0.26459,-1.322963 -0.0241,-0.32409 0,-0.264498 0,-0.264498 h 3.175"
       id="shield-back" />
    <path
       style="fill:{{u.alpha}};fill-opacity:1;stroke:none;stroke-width:0;stroke-linecap:butt;stroke-linejoin:miter;stroke-miterlimit:4;stroke-dasharray:none;stroke-opacity:1"
       d="m 121.15806,96.414719 h 0.79375 0.52917 l 1.05833,0.264584 0.79375,0.264583 v 1.5875 1.058333 l -2.41136,-0.0021 h -1.5875 l -2.35114,0.0021 v -1.058333 -1.5875 l 0.79375,-0.264583 1.07411,-0.250788 0.51339,-0.0138 h 0.79375"
       id="shield-1-7" />
    <path
       style="fill:none;stroke:#000000;stroke-width:0.1;stroke-linecap:butt;stroke-linejoin:miter;stroke-miterlimit:4;stroke-dasharray:none;stroke-opacity:1"
       d="m 121.15806,96.409576 c 0,0 0.35277,0.0042 0.52917,0.0051 0.26458,0.0013 0.53115,-0.03229 0.79375,4.4e-5 0.36091,0.04444 0.7092,0.162898 1.05833,0.264583 0.26778,0.07799 0.79375,0.264669 0.79375,0.264669 0,0 0.006,1.161664 0,1.587458 -0.006,0.425795 0.0241,0.998787 0,1.322873 -0.0483,0.648177 -0.1276,0.923737 -0.26458,1.322957 -0.13698,0.39922 -0.26154,0.73761 -0.52917,1.05829 -0.26763,0.32068 -1.05833,0.79379 -1.05833,0.79379 l -1.32292,0.79375 -1.32291,-0.79375 c 0,0 -0.79071,-0.4731 -1.05834,-0.79379 -0.26763,-0.32069 -0.52916,-1.05829 -0.52916,-1.05829 0,0 -0.21632,-0.67478 -0.26459,-1.322957 -0.0241,-0.324086 0.006,-0.897122 0,-1.322917 -0.006,-0.425794 3e-5,-1.587414 3e-5,-1.587414 0,0 0.52595,-0.186679 0.79372,-0.264669 0.34913,-0.101687 0.69743,-0.220143 1.05834,-0.264583 0.2626,-0.03234 0.52917,0.0012 0.79375,-4.4e-5 0.17645,-8.55e-4 0.52933,-0.0051 0.52933,-0.0051"
       id="shield" />
    <path
       style="fill:{{u.gamma}};fill-opacity:1;stroke:none;stroke-width:0.1;stroke-linecap:round;stroke-linejoin:bevel;stroke-miterlimit:4;stroke-dasharray:none;stroke-opacity:1;paint-order:stroke markers fill"
       id="path25655"
       d="M 13.351989,15.334625 8.3172828,12.635648 3.2396781,15.253027 4.2507484,9.630707 0.19240689,5.6104325 5.8519888,4.8346251 8.4214006,-0.26742015 10.908144,4.8754245 16.55447,5.7424616 12.43178,9.6967217 Z"
       transform="matrix(0.26458333,0,0,0.26458333,118.92715,97.288712)" />
  </g>
</svg>
