<?xml version="1.0" encoding="UTF-8" standalone="no"?>
<!-- Created with Inkscape (http://www.inkscape.org/) -->

<svg
   width="6.3451104mm"
   height="6.7990913mm"
   viewBox="0 0 6.3451105 6.7990914"
   version="1.1"
   id="svg5"
   inkscape:version="1.1.2 (0a00cf5339, 2022-02-04)"
   sodipodi:docname="gamemaster_shield_5.svg"
   xmlns:inkscape="http://www.inkscape.org/namespaces/inkscape"
   xmlns:sodipodi="http://sodipodi.sourceforge.net/DTD/sodipodi-0.dtd"
   xmlns="http://www.w3.org/2000/svg"
   xmlns:svg="http://www.w3.org/2000/svg">
  <sodipodi:namedview
     id="namedview7"
     pagecolor="#ffffff"
     bordercolor="#666666"
     borderopacity="1.0"
     inkscape:pageshadow="2"
     inkscape:pageopacity="0.0"
     inkscape:pagecheckerboard="0"
     inkscape:document-units="mm"
     showgrid="true"
     fit-margin-top="0"
     fit-margin-left="0"
     fit-margin-right="0"
     fit-margin-bottom="0"
     inkscape:zoom="22.321212"
     inkscape:cx="15.814553"
     inkscape:cy="11.648113"
     inkscape:window-width="1920"
     inkscape:window-height="1014"
     inkscape:window-x="0"
     inkscape:window-y="0"
     inkscape:window-maximized="1"
     inkscape:current-layer="layer2"
     showguides="true"
     inkscape:guide-bbox="true">
    <sodipodi:guide
       position="-23.318403,-9.1154191"
       orientation="0,-1"
       id="guide1307" />
    <sodipodi:guide
       position="-23.318403,14.64814"
       orientation="0,-1"
       id="guide1309" />
    <inkscape:grid
       type="xygrid"
       id="grid32208"
       originx="-39.16078"
       originy="-7.8490471" />
    <sodipodi:guide
       position="3.1725534,7.2398051"
       orientation="1,0"
       id="guide12393" />
    <sodipodi:guide
       position="3.9663034,3.8002218"
       orientation="0,-1"
       id="guide12395" />
  </sodipodi:namedview>
  <defs
     id="defs2">
    <inkscape:perspective
       sodipodi:type="inkscape:persp3d"
       inkscape:vp_x="0 : -5.0826886 : 1"
       inkscape:vp_y="0 : 999.99994 : 0"
       inkscape:vp_z="24.275355 : -5.0826886 : 1"
       inkscape:persp3d-origin="12.137677 : -9.0432815 : 1"
       id="perspective37406" />
    <rect
       x="-60.001423"
       y="-25.091503"
       width="215.9279"
       height="164.81828"
       id="rect27552" />
  </defs>
  <g
     inkscape:label="Layer 1"
     inkscape:groupmode="layer"
     id="layer1"
     transform="translate(-117.98551,-96.59085)">
    <text
       xml:space="preserve"
       transform="matrix(0.70126003,0,0,0.70126003,8.9564721,70.176774)"
       id="text27550"
       style="font-style:normal;font-weight:normal;font-size:40px;line-height:1.25;font-family:sans-serif;white-space:pre;shape-inside:url(#rect27552);fill:#000000;fill-opacity:1;stroke:none" />
    <path
       style="fill:none;stroke:#000000;stroke-width:0.166793;stroke-linecap:butt;stroke-linejoin:miter;stroke-miterlimit:4;stroke-dasharray:none;stroke-opacity:1"
       d="m 121.15806,96.674247 c 0.33098,0 0.57922,0 0.79297,0.0069 0.21376,0.0069 0.39304,0.02069 0.58612,0.04827 0.19307,0.02758 0.39993,0.06896 0.66885,0.131017 0.26893,0.06206 0.59991,0.144808 1.04122,0.255138 0,0.551637 0,1.034319 -0.006,1.460113 -0.006,0.425795 -0.0181,0.794702 -0.0422,1.118788 -0.0483,0.648177 -0.1448,1.117067 -0.33787,1.503217 -0.19308,0.38614 -0.48269,0.68954 -0.9171,1.00673 -0.21721,0.1586 -0.47061,0.32064 -0.76626,0.4982 -0.29564,0.17755 -0.63351,0.37063 -1.01966,0.59128 -0.38614,-0.22065 -0.72402,-0.41373 -1.01966,-0.59128 -0.29564,-0.17756 -0.54905,-0.3396 -0.76625,-0.4982 -0.43442,-0.31719 -0.72402,-0.62059 -0.9171,-1.00673 -0.19307,-0.38615 -0.2896,-0.85504 -0.33787,-1.503217 -0.0241,-0.324086 -0.0362,-0.692993 -0.0422,-1.118788 -0.006,-0.425794 -0.006,-0.908476 -0.006,-1.460113 0.44131,-0.11033 0.77229,-0.193078 1.04121,-0.255138 0.26892,-0.06206 0.47578,-0.103435 0.66886,-0.131017 0.19307,-0.02758 0.37235,-0.04137 0.58611,-0.04827 0.21376,-0.0069 0.46199,-0.0069 0.79297,-0.0069"
       id="shield"
       sodipodi:nodetypes="cssscssssscssssscsssc" />
    <path
       style="fill:none;stroke:#000000;stroke-width:0.166793;stroke-linecap:butt;stroke-linejoin:miter;stroke-miterlimit:4;stroke-dasharray:none;stroke-opacity:1"
       d="m 121.15806,96.674247 c 0.33098,0 0.57922,0 0.79297,0.0069 0.21376,0.0069 0.39304,0.02069 0.58612,0.04827 0.19307,0.02758 0.39993,0.06896 0.66885,0.131017 0.26893,0.06206 0.59991,0.144808 1.04122,0.255138 0,0.551637 0,1.034319 -0.006,1.460113 -0.006,0.425795 -4.4e-4,0.0064 -0.0422,1.118788 -0.39512,-0.104753 -0.39512,-0.104753 -2.24721,-0.104753 l -1.5875,0 c -1.85208,0 -1.85208,0 -2.24706,0.104753 -0.0241,-0.324086 -0.0362,-0.692993 -0.0422,-1.118788 -0.006,-0.425794 -0.006,-0.908476 -0.006,-1.460113 0.44131,-0.11033 0.77229,-0.193078 1.04121,-0.255138 0.26892,-0.06206 0.47578,-0.103435 0.66886,-0.131017 0.19307,-0.02758 0.37235,-0.04137 0.58611,-0.04827 0.21376,-0.0069 0.46199,-0.0069 0.79297,-0.0069"
       id="shield-1"
       sodipodi:nodetypes="cssscsccccscsssc" />
  </g>
  <g
     inkscape:groupmode="layer"
     id="layer2"
     inkscape:label="symbol">
    <circle
       style="fill:#ff0000;fill-opacity:1;stroke:#000000;stroke-width:0.1;stroke-linecap:round;stroke-linejoin:bevel;stroke-miterlimit:4;stroke-dasharray:none;stroke-opacity:1;paint-order:stroke markers fill"
       id="path12234"
       cx="1.5628194"
       cy="1.9430175"
       r="0.66145831" />
    <circle
       style="fill:#ff0000;fill-opacity:1;stroke:#000000;stroke-width:0.1;stroke-linecap:round;stroke-linejoin:bevel;stroke-miterlimit:4;stroke-dasharray:none;stroke-opacity:1;paint-order:stroke markers fill"
       id="path12234-0"
       cx="3.1627569"
       cy="4.7500253"
       r="0.66145831" />
    <circle
       style="fill:#ff0000;fill-opacity:1;stroke:#000000;stroke-width:0.1;stroke-linecap:round;stroke-linejoin:bevel;stroke-miterlimit:4;stroke-dasharray:none;stroke-opacity:1;paint-order:stroke markers fill"
       id="path12234-0-4"
       cx="4.817378"
       cy="1.9659564"
       r="0.66145831" />
  </g>
</svg>
