<?xml version="1.0" encoding="UTF-8" standalone="no"?>
<svg
        xmlns="http://www.w3.org/2000/svg"
        version="1.2"
        baseProfile="tiny"
        width="2cm"
        height="2cm"
        viewBox="-10 -10 20 20">
    <g id="realm" transform="rotate(-20)">
        <circle r="7" cy="0" style="fill:#202020;stroke:#808080;stroke-width:0.1mm;"/>
        <circle r="6" cy="0" style="fill:#101010;stroke:#808080;stroke-width:0.1mm;"/>
        <path style="fill:#204060;stroke:#102030;stroke-width:0.05mm;"
            d = "M 3 -2 l -3 3 l -3 -3 l 1 -1 l 2 2 l 1 -1 l -3 -3 l 1 -1 l 4 4 ">
        </path>
        <path style="fill:#204060;stroke:#202020;stroke-width:0.05mm;"
            d = "M -0.5 1.5 l -2 2 l -3 -3 l 1 -1 l 2 2 l 1 -1 l 1 1    ">
        </path>

        <path style="fill:#204060;stroke:#202020;stroke-width:0.05mm;"
            d = "M 2 3 l -1 -1 3 -3 1 1 -3 3  ">
        </path>
        <path style="fill:#204060;stroke:#202020;stroke-width:0.05mm;"
            d = "M -0.5 5.5 l -1 -1 2 -2 1 1 -2 2  ">
        </path>

        <text opacity="1" x="0" y="3" style="font-size:3pt;font-family:Anybody;text-anchor:middle;fill:#909090;stroke:#202020;stroke-width:0.025mm;">JDR
        </text>
    </g>
</svg>
